<?xml version="1.0" encoding="iso-8859-1"?>
<!-- Uploaded to: SVG Repo, www.svgrepo.com, Generator: SVG Repo Mixer Tools -->
<!DOCTYPE svg PUBLIC "-//W3C//DTD SVG 1.1//EN" "http://www.w3.org/Graphics/SVG/1.1/DTD/svg11.dtd">
<svg fill="#000000" version="1.1" id="Capa_1" xmlns="http://www.w3.org/2000/svg" xmlns:xlink="http://www.w3.org/1999/xlink" 
	 width="800px" height="800px" viewBox="0 0 518.518 518.518"
	 xml:space="preserve">
<g>
	<g>
		<path d="M253.674,80.899L90.27,197.638H26.392C11.857,197.638,0,209.495,0,224.03v70.457c0,14.534,11.857,26.392,26.392,26.392
			H90.27l163.557,116.739c11.857,8.491,21.419,3.52,21.419-11.016V91.915C275.246,77.38,265.607,72.407,253.674,80.899z"/>
		<path d="M342.338,81.97c-12.164,0-22.033,9.869-22.033,22.032s9.869,22.032,22.033,22.032c72.98,0,132.115,59.135,132.115,132.116
			c0,72.981-59.135,132.115-132.115,132.115c-12.164,0-22.033,9.869-22.033,22.032s9.869,22.032,22.033,22.032
			c97.307,0,176.18-78.872,176.18-176.18C518.518,160.918,439.723,81.97,342.338,81.97z"/>
		<path d="M342.338,313.153c-12.164,0-22.033,9.868-22.033,22.031c0,12.164,9.869,22.032,22.033,22.032
			c54.773,0,99.066-44.37,99.066-99.067c0-54.698-44.369-99.067-99.066-99.067c-12.164,0-22.033,9.868-22.033,22.032
			s9.869,22.032,22.033,22.032c30.369,0,55.08,24.633,55.08,55.08C397.418,288.673,372.785,313.153,342.338,313.153z"/>
	</g>
</g>
</svg>